<mxfile host="app.diagrams.net" agent="Mozilla/5.0 (Windows NT 10.0; Win64; x64) AppleWebKit/537.36 (KHTML, like Gecko) Chrome/135.0.0.0 Safari/537.36" version="26.0.14" pages="7">
  <diagram id="ugaU2PE5hNisyk1NV4ZJ" name="Solution Architecture">
    <mxGraphModel dx="1100" dy="718" grid="1" gridSize="10" guides="1" tooltips="1" connect="1" arrows="1" fold="1" page="1" pageScale="1" pageWidth="827" pageHeight="1169" math="0" shadow="0">
      <root>
        <mxCell id="0" />
        <mxCell id="1" parent="0" />
        <mxCell id="hjz8ErEGfC1aOjkgx-5J-2" value="" style="sketch=0;outlineConnect=0;fontColor=#232F3E;gradientColor=none;fillColor=#232F3D;strokeColor=none;dashed=0;verticalLabelPosition=bottom;verticalAlign=top;align=center;html=1;fontSize=12;fontStyle=0;aspect=fixed;pointerEvents=1;shape=mxgraph.aws4.user;" vertex="1" parent="1">
          <mxGeometry x="110" y="384" width="50" height="50" as="geometry" />
        </mxCell>
        <mxCell id="hjz8ErEGfC1aOjkgx-5J-3" value="Controller" style="rounded=1;whiteSpace=wrap;html=1;" vertex="1" parent="1">
          <mxGeometry x="400" y="379" width="120" height="60" as="geometry" />
        </mxCell>
        <mxCell id="hjz8ErEGfC1aOjkgx-5J-4" value="View" style="rounded=1;whiteSpace=wrap;html=1;" vertex="1" parent="1">
          <mxGeometry x="220" y="380" width="120" height="60" as="geometry" />
        </mxCell>
        <mxCell id="hjz8ErEGfC1aOjkgx-5J-6" value="Storage" style="rounded=1;whiteSpace=wrap;html=1;" vertex="1" parent="1">
          <mxGeometry x="750" y="379" width="120" height="60" as="geometry" />
        </mxCell>
        <mxCell id="hjz8ErEGfC1aOjkgx-5J-9" value="Model" style="rounded=1;whiteSpace=wrap;html=1;" vertex="1" parent="1">
          <mxGeometry x="580" y="310" width="120" height="60" as="geometry" />
        </mxCell>
        <mxCell id="hjz8ErEGfC1aOjkgx-5J-10" value="Service" style="rounded=1;whiteSpace=wrap;html=1;" vertex="1" parent="1">
          <mxGeometry x="580" y="450" width="120" height="60" as="geometry" />
        </mxCell>
        <mxCell id="mGnPjEfvJ_xpPdYLqvQM-2" value="" style="endArrow=classic;html=1;rounded=0;entryX=0;entryY=0.5;entryDx=0;entryDy=0;dashed=1;" edge="1" parent="1" source="hjz8ErEGfC1aOjkgx-5J-2" target="hjz8ErEGfC1aOjkgx-5J-4">
          <mxGeometry width="50" height="50" relative="1" as="geometry">
            <mxPoint x="150" y="440" as="sourcePoint" />
            <mxPoint x="200" y="390" as="targetPoint" />
          </mxGeometry>
        </mxCell>
        <mxCell id="mGnPjEfvJ_xpPdYLqvQM-3" value="" style="endArrow=classic;html=1;rounded=0;dashed=1;exitX=1;exitY=0.5;exitDx=0;exitDy=0;" edge="1" parent="1" source="hjz8ErEGfC1aOjkgx-5J-4">
          <mxGeometry width="50" height="50" relative="1" as="geometry">
            <mxPoint x="138" y="419" as="sourcePoint" />
            <mxPoint x="400" y="410" as="targetPoint" />
          </mxGeometry>
        </mxCell>
        <mxCell id="mGnPjEfvJ_xpPdYLqvQM-4" value="" style="endArrow=classic;html=1;rounded=0;entryX=0;entryY=0.5;entryDx=0;entryDy=0;dashed=1;exitX=1;exitY=0.25;exitDx=0;exitDy=0;" edge="1" parent="1" source="hjz8ErEGfC1aOjkgx-5J-3" target="hjz8ErEGfC1aOjkgx-5J-9">
          <mxGeometry width="50" height="50" relative="1" as="geometry">
            <mxPoint x="350" y="420" as="sourcePoint" />
            <mxPoint x="410" y="419" as="targetPoint" />
          </mxGeometry>
        </mxCell>
        <mxCell id="mGnPjEfvJ_xpPdYLqvQM-5" value="" style="endArrow=classic;html=1;rounded=0;entryX=-0.009;entryY=0.35;entryDx=0;entryDy=0;dashed=1;exitX=1;exitY=0.683;exitDx=0;exitDy=0;entryPerimeter=0;exitPerimeter=0;startArrow=none;startFill=0;" edge="1" parent="1" source="hjz8ErEGfC1aOjkgx-5J-3" target="hjz8ErEGfC1aOjkgx-5J-10">
          <mxGeometry width="50" height="50" relative="1" as="geometry">
            <mxPoint x="530" y="404" as="sourcePoint" />
            <mxPoint x="590" y="350" as="targetPoint" />
          </mxGeometry>
        </mxCell>
        <mxCell id="mGnPjEfvJ_xpPdYLqvQM-6" value="" style="endArrow=classic;html=1;rounded=0;entryX=0;entryY=0.75;entryDx=0;entryDy=0;dashed=1;exitX=1.001;exitY=0.307;exitDx=0;exitDy=0;exitPerimeter=0;startArrow=none;startFill=0;" edge="1" parent="1" source="hjz8ErEGfC1aOjkgx-5J-10" target="hjz8ErEGfC1aOjkgx-5J-6">
          <mxGeometry width="50" height="50" relative="1" as="geometry">
            <mxPoint x="530" y="430" as="sourcePoint" />
            <mxPoint x="589" y="481" as="targetPoint" />
          </mxGeometry>
        </mxCell>
        <mxCell id="mGnPjEfvJ_xpPdYLqvQM-7" value="" style="endArrow=classic;html=1;rounded=0;entryX=0.5;entryY=1;entryDx=0;entryDy=0;dashed=1;exitX=0.5;exitY=0;exitDx=0;exitDy=0;startArrow=none;startFill=0;" edge="1" parent="1" source="hjz8ErEGfC1aOjkgx-5J-10" target="hjz8ErEGfC1aOjkgx-5J-9">
          <mxGeometry width="50" height="50" relative="1" as="geometry">
            <mxPoint x="710" y="478" as="sourcePoint" />
            <mxPoint x="760" y="434" as="targetPoint" />
          </mxGeometry>
        </mxCell>
      </root>
    </mxGraphModel>
  </diagram>
  <diagram name="Class Diagram" id="D2dMaaOnBkSUYKfhlZAn">
    <mxGraphModel dx="1320" dy="862" grid="1" gridSize="10" guides="1" tooltips="1" connect="1" arrows="1" fold="1" page="1" pageScale="1" pageWidth="827" pageHeight="1169" math="0" shadow="0">
      <root>
        <mxCell id="0" />
        <mxCell id="1" parent="0" />
        <mxCell id="xvJcPgrTXBg1_X-vIGtB-1" value="MainController" style="swimlane;fontStyle=1;align=center;verticalAlign=top;childLayout=stackLayout;horizontal=1;startSize=26;horizontalStack=0;resizeParent=1;resizeParentMax=0;resizeLast=0;collapsible=1;marginBottom=0;whiteSpace=wrap;html=1;" vertex="1" parent="1">
          <mxGeometry x="150" y="270" width="160" height="86" as="geometry" />
        </mxCell>
        <mxCell id="xvJcPgrTXBg1_X-vIGtB-2" value="+ field: type" style="text;strokeColor=none;fillColor=none;align=left;verticalAlign=top;spacingLeft=4;spacingRight=4;overflow=hidden;rotatable=0;points=[[0,0.5],[1,0.5]];portConstraint=eastwest;whiteSpace=wrap;html=1;" vertex="1" parent="xvJcPgrTXBg1_X-vIGtB-1">
          <mxGeometry y="26" width="160" height="26" as="geometry" />
        </mxCell>
        <mxCell id="xvJcPgrTXBg1_X-vIGtB-3" value="" style="line;strokeWidth=1;fillColor=none;align=left;verticalAlign=middle;spacingTop=-1;spacingLeft=3;spacingRight=3;rotatable=0;labelPosition=right;points=[];portConstraint=eastwest;strokeColor=inherit;" vertex="1" parent="xvJcPgrTXBg1_X-vIGtB-1">
          <mxGeometry y="52" width="160" height="8" as="geometry" />
        </mxCell>
        <mxCell id="xvJcPgrTXBg1_X-vIGtB-4" value="+ method(type): type" style="text;strokeColor=none;fillColor=none;align=left;verticalAlign=top;spacingLeft=4;spacingRight=4;overflow=hidden;rotatable=0;points=[[0,0.5],[1,0.5]];portConstraint=eastwest;whiteSpace=wrap;html=1;" vertex="1" parent="xvJcPgrTXBg1_X-vIGtB-1">
          <mxGeometry y="60" width="160" height="26" as="geometry" />
        </mxCell>
        <mxCell id="xvJcPgrTXBg1_X-vIGtB-5" value="Session" style="swimlane;fontStyle=1;align=center;verticalAlign=top;childLayout=stackLayout;horizontal=1;startSize=26;horizontalStack=0;resizeParent=1;resizeParentMax=0;resizeLast=0;collapsible=1;marginBottom=0;whiteSpace=wrap;html=1;" vertex="1" parent="1">
          <mxGeometry x="430" y="270" width="160" height="86" as="geometry" />
        </mxCell>
        <mxCell id="xvJcPgrTXBg1_X-vIGtB-6" value="+ field: type" style="text;strokeColor=none;fillColor=none;align=left;verticalAlign=top;spacingLeft=4;spacingRight=4;overflow=hidden;rotatable=0;points=[[0,0.5],[1,0.5]];portConstraint=eastwest;whiteSpace=wrap;html=1;" vertex="1" parent="xvJcPgrTXBg1_X-vIGtB-5">
          <mxGeometry y="26" width="160" height="26" as="geometry" />
        </mxCell>
        <mxCell id="xvJcPgrTXBg1_X-vIGtB-7" value="" style="line;strokeWidth=1;fillColor=none;align=left;verticalAlign=middle;spacingTop=-1;spacingLeft=3;spacingRight=3;rotatable=0;labelPosition=right;points=[];portConstraint=eastwest;strokeColor=inherit;" vertex="1" parent="xvJcPgrTXBg1_X-vIGtB-5">
          <mxGeometry y="52" width="160" height="8" as="geometry" />
        </mxCell>
        <mxCell id="xvJcPgrTXBg1_X-vIGtB-8" value="+ method(type): type" style="text;strokeColor=none;fillColor=none;align=left;verticalAlign=top;spacingLeft=4;spacingRight=4;overflow=hidden;rotatable=0;points=[[0,0.5],[1,0.5]];portConstraint=eastwest;whiteSpace=wrap;html=1;" vertex="1" parent="xvJcPgrTXBg1_X-vIGtB-5">
          <mxGeometry y="60" width="160" height="26" as="geometry" />
        </mxCell>
        <mxCell id="xvJcPgrTXBg1_X-vIGtB-9" value="BreakManager" style="swimlane;fontStyle=1;align=center;verticalAlign=top;childLayout=stackLayout;horizontal=1;startSize=26;horizontalStack=0;resizeParent=1;resizeParentMax=0;resizeLast=0;collapsible=1;marginBottom=0;whiteSpace=wrap;html=1;" vertex="1" parent="1">
          <mxGeometry x="800" y="280" width="160" height="86" as="geometry" />
        </mxCell>
        <mxCell id="xvJcPgrTXBg1_X-vIGtB-10" value="+ field: type" style="text;strokeColor=none;fillColor=none;align=left;verticalAlign=top;spacingLeft=4;spacingRight=4;overflow=hidden;rotatable=0;points=[[0,0.5],[1,0.5]];portConstraint=eastwest;whiteSpace=wrap;html=1;" vertex="1" parent="xvJcPgrTXBg1_X-vIGtB-9">
          <mxGeometry y="26" width="160" height="26" as="geometry" />
        </mxCell>
        <mxCell id="xvJcPgrTXBg1_X-vIGtB-11" value="" style="line;strokeWidth=1;fillColor=none;align=left;verticalAlign=middle;spacingTop=-1;spacingLeft=3;spacingRight=3;rotatable=0;labelPosition=right;points=[];portConstraint=eastwest;strokeColor=inherit;" vertex="1" parent="xvJcPgrTXBg1_X-vIGtB-9">
          <mxGeometry y="52" width="160" height="8" as="geometry" />
        </mxCell>
        <mxCell id="xvJcPgrTXBg1_X-vIGtB-12" value="+ method(type): type" style="text;strokeColor=none;fillColor=none;align=left;verticalAlign=top;spacingLeft=4;spacingRight=4;overflow=hidden;rotatable=0;points=[[0,0.5],[1,0.5]];portConstraint=eastwest;whiteSpace=wrap;html=1;" vertex="1" parent="xvJcPgrTXBg1_X-vIGtB-9">
          <mxGeometry y="60" width="160" height="26" as="geometry" />
        </mxCell>
        <mxCell id="xvJcPgrTXBg1_X-vIGtB-13" value="TimerManager" style="swimlane;fontStyle=1;align=center;verticalAlign=top;childLayout=stackLayout;horizontal=1;startSize=26;horizontalStack=0;resizeParent=1;resizeParentMax=0;resizeLast=0;collapsible=1;marginBottom=0;whiteSpace=wrap;html=1;" vertex="1" parent="1">
          <mxGeometry x="650" y="160" width="160" height="86" as="geometry" />
        </mxCell>
        <mxCell id="xvJcPgrTXBg1_X-vIGtB-14" value="+ field: type" style="text;strokeColor=none;fillColor=none;align=left;verticalAlign=top;spacingLeft=4;spacingRight=4;overflow=hidden;rotatable=0;points=[[0,0.5],[1,0.5]];portConstraint=eastwest;whiteSpace=wrap;html=1;" vertex="1" parent="xvJcPgrTXBg1_X-vIGtB-13">
          <mxGeometry y="26" width="160" height="26" as="geometry" />
        </mxCell>
        <mxCell id="xvJcPgrTXBg1_X-vIGtB-15" value="" style="line;strokeWidth=1;fillColor=none;align=left;verticalAlign=middle;spacingTop=-1;spacingLeft=3;spacingRight=3;rotatable=0;labelPosition=right;points=[];portConstraint=eastwest;strokeColor=inherit;" vertex="1" parent="xvJcPgrTXBg1_X-vIGtB-13">
          <mxGeometry y="52" width="160" height="8" as="geometry" />
        </mxCell>
        <mxCell id="xvJcPgrTXBg1_X-vIGtB-16" value="+ method(type): type" style="text;strokeColor=none;fillColor=none;align=left;verticalAlign=top;spacingLeft=4;spacingRight=4;overflow=hidden;rotatable=0;points=[[0,0.5],[1,0.5]];portConstraint=eastwest;whiteSpace=wrap;html=1;" vertex="1" parent="xvJcPgrTXBg1_X-vIGtB-13">
          <mxGeometry y="60" width="160" height="26" as="geometry" />
        </mxCell>
        <mxCell id="xvJcPgrTXBg1_X-vIGtB-17" value="SessionDuration" style="swimlane;fontStyle=1;align=center;verticalAlign=top;childLayout=stackLayout;horizontal=1;startSize=26;horizontalStack=0;resizeParent=1;resizeParentMax=0;resizeLast=0;collapsible=1;marginBottom=0;whiteSpace=wrap;html=1;" vertex="1" parent="1">
          <mxGeometry x="800" y="424" width="160" height="86" as="geometry" />
        </mxCell>
        <mxCell id="xvJcPgrTXBg1_X-vIGtB-18" value="+ field: type" style="text;strokeColor=none;fillColor=none;align=left;verticalAlign=top;spacingLeft=4;spacingRight=4;overflow=hidden;rotatable=0;points=[[0,0.5],[1,0.5]];portConstraint=eastwest;whiteSpace=wrap;html=1;" vertex="1" parent="xvJcPgrTXBg1_X-vIGtB-17">
          <mxGeometry y="26" width="160" height="26" as="geometry" />
        </mxCell>
        <mxCell id="xvJcPgrTXBg1_X-vIGtB-19" value="" style="line;strokeWidth=1;fillColor=none;align=left;verticalAlign=middle;spacingTop=-1;spacingLeft=3;spacingRight=3;rotatable=0;labelPosition=right;points=[];portConstraint=eastwest;strokeColor=inherit;" vertex="1" parent="xvJcPgrTXBg1_X-vIGtB-17">
          <mxGeometry y="52" width="160" height="8" as="geometry" />
        </mxCell>
        <mxCell id="xvJcPgrTXBg1_X-vIGtB-20" value="+ method(type): type" style="text;strokeColor=none;fillColor=none;align=left;verticalAlign=top;spacingLeft=4;spacingRight=4;overflow=hidden;rotatable=0;points=[[0,0.5],[1,0.5]];portConstraint=eastwest;whiteSpace=wrap;html=1;" vertex="1" parent="xvJcPgrTXBg1_X-vIGtB-17">
          <mxGeometry y="60" width="160" height="26" as="geometry" />
        </mxCell>
        <mxCell id="xvJcPgrTXBg1_X-vIGtB-22" value="SessionTagging" style="swimlane;fontStyle=1;align=center;verticalAlign=top;childLayout=stackLayout;horizontal=1;startSize=26;horizontalStack=0;resizeParent=1;resizeParentMax=0;resizeLast=0;collapsible=1;marginBottom=0;whiteSpace=wrap;html=1;" vertex="1" parent="1">
          <mxGeometry x="550" y="542" width="160" height="86" as="geometry" />
        </mxCell>
        <mxCell id="xvJcPgrTXBg1_X-vIGtB-23" value="+ field: type" style="text;strokeColor=none;fillColor=none;align=left;verticalAlign=top;spacingLeft=4;spacingRight=4;overflow=hidden;rotatable=0;points=[[0,0.5],[1,0.5]];portConstraint=eastwest;whiteSpace=wrap;html=1;" vertex="1" parent="xvJcPgrTXBg1_X-vIGtB-22">
          <mxGeometry y="26" width="160" height="26" as="geometry" />
        </mxCell>
        <mxCell id="xvJcPgrTXBg1_X-vIGtB-24" value="" style="line;strokeWidth=1;fillColor=none;align=left;verticalAlign=middle;spacingTop=-1;spacingLeft=3;spacingRight=3;rotatable=0;labelPosition=right;points=[];portConstraint=eastwest;strokeColor=inherit;" vertex="1" parent="xvJcPgrTXBg1_X-vIGtB-22">
          <mxGeometry y="52" width="160" height="8" as="geometry" />
        </mxCell>
        <mxCell id="xvJcPgrTXBg1_X-vIGtB-25" value="+ method(type): type" style="text;strokeColor=none;fillColor=none;align=left;verticalAlign=top;spacingLeft=4;spacingRight=4;overflow=hidden;rotatable=0;points=[[0,0.5],[1,0.5]];portConstraint=eastwest;whiteSpace=wrap;html=1;" vertex="1" parent="xvJcPgrTXBg1_X-vIGtB-22">
          <mxGeometry y="60" width="160" height="26" as="geometry" />
        </mxCell>
        <mxCell id="xvJcPgrTXBg1_X-vIGtB-26" value="Module" style="swimlane;fontStyle=1;align=center;verticalAlign=top;childLayout=stackLayout;horizontal=1;startSize=26;horizontalStack=0;resizeParent=1;resizeParentMax=0;resizeLast=0;collapsible=1;marginBottom=0;whiteSpace=wrap;html=1;" vertex="1" parent="1">
          <mxGeometry x="860" y="542" width="160" height="86" as="geometry" />
        </mxCell>
        <mxCell id="xvJcPgrTXBg1_X-vIGtB-27" value="+ field: type" style="text;strokeColor=none;fillColor=none;align=left;verticalAlign=top;spacingLeft=4;spacingRight=4;overflow=hidden;rotatable=0;points=[[0,0.5],[1,0.5]];portConstraint=eastwest;whiteSpace=wrap;html=1;" vertex="1" parent="xvJcPgrTXBg1_X-vIGtB-26">
          <mxGeometry y="26" width="160" height="26" as="geometry" />
        </mxCell>
        <mxCell id="xvJcPgrTXBg1_X-vIGtB-28" value="" style="line;strokeWidth=1;fillColor=none;align=left;verticalAlign=middle;spacingTop=-1;spacingLeft=3;spacingRight=3;rotatable=0;labelPosition=right;points=[];portConstraint=eastwest;strokeColor=inherit;" vertex="1" parent="xvJcPgrTXBg1_X-vIGtB-26">
          <mxGeometry y="52" width="160" height="8" as="geometry" />
        </mxCell>
        <mxCell id="xvJcPgrTXBg1_X-vIGtB-29" value="+ method(type): type" style="text;strokeColor=none;fillColor=none;align=left;verticalAlign=top;spacingLeft=4;spacingRight=4;overflow=hidden;rotatable=0;points=[[0,0.5],[1,0.5]];portConstraint=eastwest;whiteSpace=wrap;html=1;" vertex="1" parent="xvJcPgrTXBg1_X-vIGtB-26">
          <mxGeometry y="60" width="160" height="26" as="geometry" />
        </mxCell>
        <mxCell id="xvJcPgrTXBg1_X-vIGtB-30" value="SessionService" style="swimlane;fontStyle=1;align=center;verticalAlign=top;childLayout=stackLayout;horizontal=1;startSize=26;horizontalStack=0;resizeParent=1;resizeParentMax=0;resizeLast=0;collapsible=1;marginBottom=0;whiteSpace=wrap;html=1;" vertex="1" parent="1">
          <mxGeometry x="290" y="670" width="160" height="86" as="geometry" />
        </mxCell>
        <mxCell id="xvJcPgrTXBg1_X-vIGtB-31" value="+ field: type" style="text;strokeColor=none;fillColor=none;align=left;verticalAlign=top;spacingLeft=4;spacingRight=4;overflow=hidden;rotatable=0;points=[[0,0.5],[1,0.5]];portConstraint=eastwest;whiteSpace=wrap;html=1;" vertex="1" parent="xvJcPgrTXBg1_X-vIGtB-30">
          <mxGeometry y="26" width="160" height="26" as="geometry" />
        </mxCell>
        <mxCell id="xvJcPgrTXBg1_X-vIGtB-32" value="" style="line;strokeWidth=1;fillColor=none;align=left;verticalAlign=middle;spacingTop=-1;spacingLeft=3;spacingRight=3;rotatable=0;labelPosition=right;points=[];portConstraint=eastwest;strokeColor=inherit;" vertex="1" parent="xvJcPgrTXBg1_X-vIGtB-30">
          <mxGeometry y="52" width="160" height="8" as="geometry" />
        </mxCell>
        <mxCell id="xvJcPgrTXBg1_X-vIGtB-33" value="+ method(type): type" style="text;strokeColor=none;fillColor=none;align=left;verticalAlign=top;spacingLeft=4;spacingRight=4;overflow=hidden;rotatable=0;points=[[0,0.5],[1,0.5]];portConstraint=eastwest;whiteSpace=wrap;html=1;" vertex="1" parent="xvJcPgrTXBg1_X-vIGtB-30">
          <mxGeometry y="60" width="160" height="26" as="geometry" />
        </mxCell>
        <mxCell id="xvJcPgrTXBg1_X-vIGtB-34" value="StorageService" style="swimlane;fontStyle=1;align=center;verticalAlign=top;childLayout=stackLayout;horizontal=1;startSize=26;horizontalStack=0;resizeParent=1;resizeParentMax=0;resizeLast=0;collapsible=1;marginBottom=0;whiteSpace=wrap;html=1;" vertex="1" parent="1">
          <mxGeometry x="550" y="670" width="160" height="86" as="geometry" />
        </mxCell>
        <mxCell id="xvJcPgrTXBg1_X-vIGtB-35" value="+ field: type" style="text;strokeColor=none;fillColor=none;align=left;verticalAlign=top;spacingLeft=4;spacingRight=4;overflow=hidden;rotatable=0;points=[[0,0.5],[1,0.5]];portConstraint=eastwest;whiteSpace=wrap;html=1;" vertex="1" parent="xvJcPgrTXBg1_X-vIGtB-34">
          <mxGeometry y="26" width="160" height="26" as="geometry" />
        </mxCell>
        <mxCell id="xvJcPgrTXBg1_X-vIGtB-36" value="" style="line;strokeWidth=1;fillColor=none;align=left;verticalAlign=middle;spacingTop=-1;spacingLeft=3;spacingRight=3;rotatable=0;labelPosition=right;points=[];portConstraint=eastwest;strokeColor=inherit;" vertex="1" parent="xvJcPgrTXBg1_X-vIGtB-34">
          <mxGeometry y="52" width="160" height="8" as="geometry" />
        </mxCell>
        <mxCell id="xvJcPgrTXBg1_X-vIGtB-37" value="+ method(type): type" style="text;strokeColor=none;fillColor=none;align=left;verticalAlign=top;spacingLeft=4;spacingRight=4;overflow=hidden;rotatable=0;points=[[0,0.5],[1,0.5]];portConstraint=eastwest;whiteSpace=wrap;html=1;" vertex="1" parent="xvJcPgrTXBg1_X-vIGtB-34">
          <mxGeometry y="60" width="160" height="26" as="geometry" />
        </mxCell>
        <mxCell id="xvJcPgrTXBg1_X-vIGtB-38" value="SessionRecord" style="swimlane;fontStyle=1;align=center;verticalAlign=top;childLayout=stackLayout;horizontal=1;startSize=26;horizontalStack=0;resizeParent=1;resizeParentMax=0;resizeLast=0;collapsible=1;marginBottom=0;whiteSpace=wrap;html=1;" vertex="1" parent="1">
          <mxGeometry x="290" y="820" width="160" height="86" as="geometry" />
        </mxCell>
        <mxCell id="xvJcPgrTXBg1_X-vIGtB-39" value="+ field: type" style="text;strokeColor=none;fillColor=none;align=left;verticalAlign=top;spacingLeft=4;spacingRight=4;overflow=hidden;rotatable=0;points=[[0,0.5],[1,0.5]];portConstraint=eastwest;whiteSpace=wrap;html=1;" vertex="1" parent="xvJcPgrTXBg1_X-vIGtB-38">
          <mxGeometry y="26" width="160" height="26" as="geometry" />
        </mxCell>
        <mxCell id="xvJcPgrTXBg1_X-vIGtB-40" value="" style="line;strokeWidth=1;fillColor=none;align=left;verticalAlign=middle;spacingTop=-1;spacingLeft=3;spacingRight=3;rotatable=0;labelPosition=right;points=[];portConstraint=eastwest;strokeColor=inherit;" vertex="1" parent="xvJcPgrTXBg1_X-vIGtB-38">
          <mxGeometry y="52" width="160" height="8" as="geometry" />
        </mxCell>
        <mxCell id="xvJcPgrTXBg1_X-vIGtB-41" value="+ method(type): type" style="text;strokeColor=none;fillColor=none;align=left;verticalAlign=top;spacingLeft=4;spacingRight=4;overflow=hidden;rotatable=0;points=[[0,0.5],[1,0.5]];portConstraint=eastwest;whiteSpace=wrap;html=1;" vertex="1" parent="xvJcPgrTXBg1_X-vIGtB-38">
          <mxGeometry y="60" width="160" height="26" as="geometry" />
        </mxCell>
        <mxCell id="xvJcPgrTXBg1_X-vIGtB-42" value="«enumeration»&lt;br&gt;&lt;b&gt;DefaultSessionCategory&lt;/b&gt;" style="html=1;whiteSpace=wrap;" vertex="1" parent="1">
          <mxGeometry x="254" y="510" width="160" height="50" as="geometry" />
        </mxCell>
        <mxCell id="xvJcPgrTXBg1_X-vIGtB-44" value="«enumeration»&lt;br&gt;&lt;b&gt;SessionDurationEnum&lt;/b&gt;" style="html=1;whiteSpace=wrap;" vertex="1" parent="1">
          <mxGeometry x="254" y="400" width="160" height="50" as="geometry" />
        </mxCell>
        <mxCell id="xvJcPgrTXBg1_X-vIGtB-45" value="" style="endArrow=open;endFill=1;endSize=12;html=1;rounded=0;exitX=0.999;exitY=0.18;exitDx=0;exitDy=0;exitPerimeter=0;entryX=-0.01;entryY=0.193;entryDx=0;entryDy=0;entryPerimeter=0;" edge="1" parent="1" source="xvJcPgrTXBg1_X-vIGtB-1" target="xvJcPgrTXBg1_X-vIGtB-5">
          <mxGeometry width="160" relative="1" as="geometry">
            <mxPoint x="290" y="400" as="sourcePoint" />
            <mxPoint x="380" y="285" as="targetPoint" />
          </mxGeometry>
        </mxCell>
        <mxCell id="xvJcPgrTXBg1_X-vIGtB-74" value="currentSession" style="edgeLabel;html=1;align=center;verticalAlign=middle;resizable=0;points=[];" vertex="1" connectable="0" parent="xvJcPgrTXBg1_X-vIGtB-45">
          <mxGeometry x="-0.1257" y="2" relative="1" as="geometry">
            <mxPoint x="8" y="12" as="offset" />
          </mxGeometry>
        </mxCell>
        <mxCell id="xvJcPgrTXBg1_X-vIGtB-46" value="1" style="endArrow=open;html=1;endSize=12;startArrow=diamondThin;startSize=14;startFill=1;edgeStyle=orthogonalEdgeStyle;align=left;verticalAlign=bottom;rounded=0;entryX=-0.004;entryY=0.131;entryDx=0;entryDy=0;entryPerimeter=0;exitX=0.823;exitY=0.008;exitDx=0;exitDy=0;exitPerimeter=0;" edge="1" parent="1" source="xvJcPgrTXBg1_X-vIGtB-5" target="xvJcPgrTXBg1_X-vIGtB-13">
          <mxGeometry x="-0.8255" y="22" relative="1" as="geometry">
            <mxPoint x="500" y="400" as="sourcePoint" />
            <mxPoint x="660" y="400" as="targetPoint" />
            <mxPoint as="offset" />
          </mxGeometry>
        </mxCell>
        <mxCell id="xvJcPgrTXBg1_X-vIGtB-47" value="1" style="edgeLabel;html=1;align=center;verticalAlign=middle;resizable=0;points=[];" vertex="1" connectable="0" parent="xvJcPgrTXBg1_X-vIGtB-46">
          <mxGeometry x="0.8751" y="1" relative="1" as="geometry">
            <mxPoint x="-5" y="-10" as="offset" />
          </mxGeometry>
        </mxCell>
        <mxCell id="xvJcPgrTXBg1_X-vIGtB-75" value="timerManager" style="edgeLabel;html=1;align=center;verticalAlign=middle;resizable=0;points=[];" vertex="1" connectable="0" parent="xvJcPgrTXBg1_X-vIGtB-46">
          <mxGeometry x="-0.0154" y="-1" relative="1" as="geometry">
            <mxPoint x="-3" y="11" as="offset" />
          </mxGeometry>
        </mxCell>
        <mxCell id="xvJcPgrTXBg1_X-vIGtB-48" value="1" style="endArrow=open;html=1;endSize=12;startArrow=diamondThin;startSize=14;startFill=1;edgeStyle=orthogonalEdgeStyle;align=left;verticalAlign=bottom;rounded=0;entryX=0.008;entryY=0.17;entryDx=0;entryDy=0;entryPerimeter=0;exitX=1;exitY=0.5;exitDx=0;exitDy=0;" edge="1" parent="1" source="xvJcPgrTXBg1_X-vIGtB-6" target="xvJcPgrTXBg1_X-vIGtB-9">
          <mxGeometry x="-1" y="3" relative="1" as="geometry">
            <mxPoint x="550" y="297" as="sourcePoint" />
            <mxPoint x="659" y="181" as="targetPoint" />
          </mxGeometry>
        </mxCell>
        <mxCell id="xvJcPgrTXBg1_X-vIGtB-49" value="1" style="edgeLabel;html=1;align=center;verticalAlign=middle;resizable=0;points=[];" vertex="1" connectable="0" parent="xvJcPgrTXBg1_X-vIGtB-48">
          <mxGeometry x="0.8751" y="1" relative="1" as="geometry">
            <mxPoint x="-5" y="-10" as="offset" />
          </mxGeometry>
        </mxCell>
        <mxCell id="xvJcPgrTXBg1_X-vIGtB-76" value="breakManager" style="edgeLabel;html=1;align=center;verticalAlign=middle;resizable=0;points=[];" vertex="1" connectable="0" parent="xvJcPgrTXBg1_X-vIGtB-48">
          <mxGeometry x="-0.0098" relative="1" as="geometry">
            <mxPoint y="-2" as="offset" />
          </mxGeometry>
        </mxCell>
        <mxCell id="xvJcPgrTXBg1_X-vIGtB-50" value="1" style="endArrow=open;html=1;endSize=12;startArrow=diamondThin;startSize=14;startFill=1;edgeStyle=orthogonalEdgeStyle;align=left;verticalAlign=bottom;rounded=0;entryX=0;entryY=0.116;entryDx=0;entryDy=0;entryPerimeter=0;exitX=1;exitY=0.5;exitDx=0;exitDy=0;" edge="1" parent="1" source="xvJcPgrTXBg1_X-vIGtB-8" target="xvJcPgrTXBg1_X-vIGtB-17">
          <mxGeometry x="-1" y="3" relative="1" as="geometry">
            <mxPoint x="550" y="319" as="sourcePoint" />
            <mxPoint x="691" y="315" as="targetPoint" />
          </mxGeometry>
        </mxCell>
        <mxCell id="xvJcPgrTXBg1_X-vIGtB-51" value="1" style="edgeLabel;html=1;align=center;verticalAlign=middle;resizable=0;points=[];" vertex="1" connectable="0" parent="xvJcPgrTXBg1_X-vIGtB-50">
          <mxGeometry x="0.8751" y="1" relative="1" as="geometry">
            <mxPoint x="-5" y="-10" as="offset" />
          </mxGeometry>
        </mxCell>
        <mxCell id="xvJcPgrTXBg1_X-vIGtB-77" value="sessionDuration" style="edgeLabel;html=1;align=center;verticalAlign=middle;resizable=0;points=[];" vertex="1" connectable="0" parent="xvJcPgrTXBg1_X-vIGtB-50">
          <mxGeometry x="-0.025" y="1" relative="1" as="geometry">
            <mxPoint as="offset" />
          </mxGeometry>
        </mxCell>
        <mxCell id="xvJcPgrTXBg1_X-vIGtB-52" value="1" style="endArrow=open;html=1;endSize=12;startArrow=diamondThin;startSize=14;startFill=1;edgeStyle=orthogonalEdgeStyle;align=left;verticalAlign=bottom;rounded=0;entryX=0.5;entryY=0;entryDx=0;entryDy=0;exitX=0.841;exitY=0.974;exitDx=0;exitDy=0;exitPerimeter=0;" edge="1" parent="1" source="xvJcPgrTXBg1_X-vIGtB-8" target="xvJcPgrTXBg1_X-vIGtB-22">
          <mxGeometry x="-0.871" y="15" relative="1" as="geometry">
            <mxPoint x="550" y="353" as="sourcePoint" />
            <mxPoint x="700" y="440" as="targetPoint" />
            <mxPoint as="offset" />
          </mxGeometry>
        </mxCell>
        <mxCell id="xvJcPgrTXBg1_X-vIGtB-53" value="1" style="edgeLabel;html=1;align=center;verticalAlign=middle;resizable=0;points=[];" vertex="1" connectable="0" parent="xvJcPgrTXBg1_X-vIGtB-52">
          <mxGeometry x="0.8751" y="1" relative="1" as="geometry">
            <mxPoint x="-5" y="-10" as="offset" />
          </mxGeometry>
        </mxCell>
        <mxCell id="xvJcPgrTXBg1_X-vIGtB-78" value="sessionTagging" style="edgeLabel;html=1;align=center;verticalAlign=middle;resizable=0;points=[];" vertex="1" connectable="0" parent="xvJcPgrTXBg1_X-vIGtB-52">
          <mxGeometry x="-0.2089" y="3" relative="1" as="geometry">
            <mxPoint as="offset" />
          </mxGeometry>
        </mxCell>
        <mxCell id="xvJcPgrTXBg1_X-vIGtB-55" value="1" style="endArrow=open;html=1;endSize=12;startArrow=diamondThin;startSize=14;startFill=0;edgeStyle=orthogonalEdgeStyle;align=left;verticalAlign=bottom;rounded=0;exitX=1.013;exitY=0.155;exitDx=0;exitDy=0;exitPerimeter=0;entryX=-0.008;entryY=0.15;entryDx=0;entryDy=0;entryPerimeter=0;" edge="1" parent="1" source="xvJcPgrTXBg1_X-vIGtB-22" target="xvJcPgrTXBg1_X-vIGtB-26">
          <mxGeometry x="-1" y="3" relative="1" as="geometry">
            <mxPoint x="530" y="520" as="sourcePoint" />
            <mxPoint x="690" y="520" as="targetPoint" />
          </mxGeometry>
        </mxCell>
        <mxCell id="xvJcPgrTXBg1_X-vIGtB-56" value="1" style="edgeLabel;html=1;align=center;verticalAlign=middle;resizable=0;points=[];" vertex="1" connectable="0" parent="xvJcPgrTXBg1_X-vIGtB-55">
          <mxGeometry x="0.6378" y="-1" relative="1" as="geometry">
            <mxPoint y="-14" as="offset" />
          </mxGeometry>
        </mxCell>
        <mxCell id="xvJcPgrTXBg1_X-vIGtB-79" value="module" style="edgeLabel;html=1;align=center;verticalAlign=middle;resizable=0;points=[];" vertex="1" connectable="0" parent="xvJcPgrTXBg1_X-vIGtB-55">
          <mxGeometry x="-0.2456" y="-3" relative="1" as="geometry">
            <mxPoint x="13" y="-7" as="offset" />
          </mxGeometry>
        </mxCell>
        <mxCell id="xvJcPgrTXBg1_X-vIGtB-57" value="Use" style="endArrow=open;endSize=12;dashed=1;html=1;rounded=0;exitX=0.178;exitY=0.981;exitDx=0;exitDy=0;exitPerimeter=0;edgeStyle=orthogonalEdgeStyle;entryX=-0.003;entryY=0.145;entryDx=0;entryDy=0;entryPerimeter=0;" edge="1" parent="1" source="xvJcPgrTXBg1_X-vIGtB-4" target="xvJcPgrTXBg1_X-vIGtB-30">
          <mxGeometry width="160" relative="1" as="geometry">
            <mxPoint x="90" y="540" as="sourcePoint" />
            <mxPoint x="210" y="700" as="targetPoint" />
            <Array as="points">
              <mxPoint x="179" y="357" />
              <mxPoint x="180" y="357" />
              <mxPoint x="180" y="690" />
              <mxPoint x="240" y="690" />
              <mxPoint x="240" y="682" />
            </Array>
          </mxGeometry>
        </mxCell>
        <mxCell id="xvJcPgrTXBg1_X-vIGtB-59" value="Use" style="endArrow=open;endSize=12;dashed=1;html=1;rounded=0;exitX=1.009;exitY=0.177;exitDx=0;exitDy=0;exitPerimeter=0;entryX=0;entryY=0.177;entryDx=0;entryDy=0;entryPerimeter=0;" edge="1" parent="1" source="xvJcPgrTXBg1_X-vIGtB-30" target="xvJcPgrTXBg1_X-vIGtB-34">
          <mxGeometry width="160" relative="1" as="geometry">
            <mxPoint x="490" y="790" as="sourcePoint" />
            <mxPoint x="650" y="790" as="targetPoint" />
          </mxGeometry>
        </mxCell>
        <mxCell id="xvJcPgrTXBg1_X-vIGtB-60" value="" style="endArrow=block;endFill=1;html=1;edgeStyle=orthogonalEdgeStyle;align=left;verticalAlign=top;rounded=0;entryX=0.625;entryY=0;entryDx=0;entryDy=0;entryPerimeter=0;exitX=0.632;exitY=0.994;exitDx=0;exitDy=0;exitPerimeter=0;" edge="1" parent="1" source="xvJcPgrTXBg1_X-vIGtB-33" target="xvJcPgrTXBg1_X-vIGtB-38">
          <mxGeometry x="-0.2141" y="10" relative="1" as="geometry">
            <mxPoint x="350" y="790" as="sourcePoint" />
            <mxPoint x="510" y="790" as="targetPoint" />
            <Array as="points">
              <mxPoint x="390" y="756" />
            </Array>
            <mxPoint as="offset" />
          </mxGeometry>
        </mxCell>
        <mxCell id="xvJcPgrTXBg1_X-vIGtB-61" value="1" style="edgeLabel;resizable=0;html=1;align=left;verticalAlign=bottom;" connectable="0" vertex="1" parent="xvJcPgrTXBg1_X-vIGtB-60">
          <mxGeometry x="-1" relative="1" as="geometry">
            <mxPoint y="24" as="offset" />
          </mxGeometry>
        </mxCell>
        <mxCell id="xvJcPgrTXBg1_X-vIGtB-62" value="1..*" style="edgeLabel;html=1;align=center;verticalAlign=middle;resizable=0;points=[];" vertex="1" connectable="0" parent="xvJcPgrTXBg1_X-vIGtB-60">
          <mxGeometry x="0.7466" y="-1" relative="1" as="geometry">
            <mxPoint x="11" y="-6" as="offset" />
          </mxGeometry>
        </mxCell>
        <mxCell id="xvJcPgrTXBg1_X-vIGtB-63" value="Refers to" style="endArrow=open;endSize=12;dashed=1;html=1;rounded=0;exitX=0.515;exitY=1.029;exitDx=0;exitDy=0;exitPerimeter=0;entryX=0;entryY=0.5;entryDx=0;entryDy=0;" edge="1" parent="1" source="xvJcPgrTXBg1_X-vIGtB-4" target="xvJcPgrTXBg1_X-vIGtB-44">
          <mxGeometry x="-0.2629" y="-2" width="160" relative="1" as="geometry">
            <mxPoint x="220" y="400" as="sourcePoint" />
            <mxPoint x="380" y="400" as="targetPoint" />
            <Array as="points">
              <mxPoint x="232" y="425" />
            </Array>
            <mxPoint as="offset" />
          </mxGeometry>
        </mxCell>
        <mxCell id="xvJcPgrTXBg1_X-vIGtB-65" value="Refers to" style="endArrow=open;endSize=12;dashed=1;html=1;rounded=0;exitX=0.437;exitY=1.151;exitDx=0;exitDy=0;exitPerimeter=0;entryX=0.5;entryY=0;entryDx=0;entryDy=0;" edge="1" parent="1" source="xvJcPgrTXBg1_X-vIGtB-8" target="xvJcPgrTXBg1_X-vIGtB-42">
          <mxGeometry width="160" relative="1" as="geometry">
            <mxPoint x="470" y="460" as="sourcePoint" />
            <mxPoint x="630" y="460" as="targetPoint" />
            <Array as="points">
              <mxPoint x="500" y="470" />
              <mxPoint x="334" y="470" />
            </Array>
          </mxGeometry>
        </mxCell>
        <mxCell id="xvJcPgrTXBg1_X-vIGtB-66" value="Refers to" style="endArrow=open;endSize=12;dashed=1;html=1;rounded=0;exitX=0;exitY=0.223;exitDx=0;exitDy=0;exitPerimeter=0;entryX=0.5;entryY=1;entryDx=0;entryDy=0;" edge="1" parent="1" source="xvJcPgrTXBg1_X-vIGtB-22" target="xvJcPgrTXBg1_X-vIGtB-42">
          <mxGeometry width="160" relative="1" as="geometry">
            <mxPoint x="460" y="370" as="sourcePoint" />
            <mxPoint x="344" y="520" as="targetPoint" />
            <Array as="points">
              <mxPoint x="440" y="560" />
              <mxPoint x="440" y="600" />
              <mxPoint x="334" y="600" />
            </Array>
          </mxGeometry>
        </mxCell>
        <mxCell id="xvJcPgrTXBg1_X-vIGtB-67" value="StatsController" style="swimlane;fontStyle=1;align=center;verticalAlign=top;childLayout=stackLayout;horizontal=1;startSize=26;horizontalStack=0;resizeParent=1;resizeParentMax=0;resizeLast=0;collapsible=1;marginBottom=0;whiteSpace=wrap;html=1;" vertex="1" parent="1">
          <mxGeometry x="120" y="930" width="160" height="86" as="geometry" />
        </mxCell>
        <mxCell id="xvJcPgrTXBg1_X-vIGtB-68" value="+ field: type" style="text;strokeColor=none;fillColor=none;align=left;verticalAlign=top;spacingLeft=4;spacingRight=4;overflow=hidden;rotatable=0;points=[[0,0.5],[1,0.5]];portConstraint=eastwest;whiteSpace=wrap;html=1;" vertex="1" parent="xvJcPgrTXBg1_X-vIGtB-67">
          <mxGeometry y="26" width="160" height="26" as="geometry" />
        </mxCell>
        <mxCell id="xvJcPgrTXBg1_X-vIGtB-69" value="" style="line;strokeWidth=1;fillColor=none;align=left;verticalAlign=middle;spacingTop=-1;spacingLeft=3;spacingRight=3;rotatable=0;labelPosition=right;points=[];portConstraint=eastwest;strokeColor=inherit;" vertex="1" parent="xvJcPgrTXBg1_X-vIGtB-67">
          <mxGeometry y="52" width="160" height="8" as="geometry" />
        </mxCell>
        <mxCell id="xvJcPgrTXBg1_X-vIGtB-70" value="+ method(type): type" style="text;strokeColor=none;fillColor=none;align=left;verticalAlign=top;spacingLeft=4;spacingRight=4;overflow=hidden;rotatable=0;points=[[0,0.5],[1,0.5]];portConstraint=eastwest;whiteSpace=wrap;html=1;" vertex="1" parent="xvJcPgrTXBg1_X-vIGtB-67">
          <mxGeometry y="60" width="160" height="26" as="geometry" />
        </mxCell>
        <mxCell id="xvJcPgrTXBg1_X-vIGtB-71" value="Use" style="endArrow=open;endSize=12;dashed=1;html=1;rounded=0;exitX=1.001;exitY=0.135;exitDx=0;exitDy=0;exitPerimeter=0;entryX=0.499;entryY=0.985;entryDx=0;entryDy=0;entryPerimeter=0;" edge="1" parent="1" source="xvJcPgrTXBg1_X-vIGtB-67" target="xvJcPgrTXBg1_X-vIGtB-37">
          <mxGeometry width="160" relative="1" as="geometry">
            <mxPoint x="461" y="695" as="sourcePoint" />
            <mxPoint x="560" y="695" as="targetPoint" />
            <Array as="points">
              <mxPoint x="630" y="942" />
            </Array>
          </mxGeometry>
        </mxCell>
        <mxCell id="xvJcPgrTXBg1_X-vIGtB-72" value="1" style="endArrow=open;html=1;endSize=12;startArrow=diamondThin;startSize=14;startFill=0;edgeStyle=orthogonalEdgeStyle;align=left;verticalAlign=bottom;rounded=0;exitX=0.5;exitY=0;exitDx=0;exitDy=0;entryX=-0.02;entryY=0.221;entryDx=0;entryDy=0;entryPerimeter=0;" edge="1" parent="1" source="xvJcPgrTXBg1_X-vIGtB-67" target="xvJcPgrTXBg1_X-vIGtB-38">
          <mxGeometry x="-0.8986" y="25" relative="1" as="geometry">
            <mxPoint x="120" y="912.6600000000001" as="sourcePoint" />
            <mxPoint x="280" y="896.4000244140625" as="targetPoint" />
            <Array as="points">
              <mxPoint x="200" y="839" />
            </Array>
            <mxPoint as="offset" />
          </mxGeometry>
        </mxCell>
        <mxCell id="xvJcPgrTXBg1_X-vIGtB-73" value="1..*" style="edgeLabel;html=1;align=center;verticalAlign=middle;resizable=0;points=[];" vertex="1" connectable="0" parent="xvJcPgrTXBg1_X-vIGtB-72">
          <mxGeometry x="0.6378" y="-1" relative="1" as="geometry">
            <mxPoint x="38" y="-20" as="offset" />
          </mxGeometry>
        </mxCell>
        <mxCell id="xvJcPgrTXBg1_X-vIGtB-100" value="sessions" style="edgeLabel;html=1;align=center;verticalAlign=middle;resizable=0;points=[];" vertex="1" connectable="0" parent="xvJcPgrTXBg1_X-vIGtB-72">
          <mxGeometry x="0.2521" y="-2" relative="1" as="geometry">
            <mxPoint x="-20" y="9" as="offset" />
          </mxGeometry>
        </mxCell>
        <mxCell id="xvJcPgrTXBg1_X-vIGtB-80" value="BreakSummary" style="swimlane;fontStyle=1;align=center;verticalAlign=top;childLayout=stackLayout;horizontal=1;startSize=26;horizontalStack=0;resizeParent=1;resizeParentMax=0;resizeLast=0;collapsible=1;marginBottom=0;whiteSpace=wrap;html=1;" vertex="1" parent="1">
          <mxGeometry x="1050" y="246" width="160" height="86" as="geometry" />
        </mxCell>
        <mxCell id="xvJcPgrTXBg1_X-vIGtB-81" value="+ field: type" style="text;strokeColor=none;fillColor=none;align=left;verticalAlign=top;spacingLeft=4;spacingRight=4;overflow=hidden;rotatable=0;points=[[0,0.5],[1,0.5]];portConstraint=eastwest;whiteSpace=wrap;html=1;" vertex="1" parent="xvJcPgrTXBg1_X-vIGtB-80">
          <mxGeometry y="26" width="160" height="26" as="geometry" />
        </mxCell>
        <mxCell id="xvJcPgrTXBg1_X-vIGtB-82" value="" style="line;strokeWidth=1;fillColor=none;align=left;verticalAlign=middle;spacingTop=-1;spacingLeft=3;spacingRight=3;rotatable=0;labelPosition=right;points=[];portConstraint=eastwest;strokeColor=inherit;" vertex="1" parent="xvJcPgrTXBg1_X-vIGtB-80">
          <mxGeometry y="52" width="160" height="8" as="geometry" />
        </mxCell>
        <mxCell id="xvJcPgrTXBg1_X-vIGtB-83" value="+ method(type): type" style="text;strokeColor=none;fillColor=none;align=left;verticalAlign=top;spacingLeft=4;spacingRight=4;overflow=hidden;rotatable=0;points=[[0,0.5],[1,0.5]];portConstraint=eastwest;whiteSpace=wrap;html=1;" vertex="1" parent="xvJcPgrTXBg1_X-vIGtB-80">
          <mxGeometry y="60" width="160" height="26" as="geometry" />
        </mxCell>
        <mxCell id="xvJcPgrTXBg1_X-vIGtB-88" value="1" style="endArrow=open;html=1;endSize=12;startArrow=diamondThin;startSize=14;startFill=0;edgeStyle=orthogonalEdgeStyle;align=left;verticalAlign=bottom;rounded=0;exitX=0.48;exitY=1.003;exitDx=0;exitDy=0;exitPerimeter=0;entryX=0.482;entryY=-0.01;entryDx=0;entryDy=0;entryPerimeter=0;" edge="1" parent="1" source="xvJcPgrTXBg1_X-vIGtB-12" target="xvJcPgrTXBg1_X-vIGtB-17">
          <mxGeometry x="-1" y="3" relative="1" as="geometry">
            <mxPoint x="850" y="390" as="sourcePoint" />
            <mxPoint x="1010" y="390" as="targetPoint" />
          </mxGeometry>
        </mxCell>
        <mxCell id="xvJcPgrTXBg1_X-vIGtB-89" value="1" style="edgeLabel;html=1;align=center;verticalAlign=middle;resizable=0;points=[];" vertex="1" connectable="0" parent="xvJcPgrTXBg1_X-vIGtB-88">
          <mxGeometry x="-0.5262" y="-1" relative="1" as="geometry">
            <mxPoint x="14" as="offset" />
          </mxGeometry>
        </mxCell>
        <mxCell id="xvJcPgrTXBg1_X-vIGtB-90" value="0..*" style="edgeLabel;html=1;align=center;verticalAlign=middle;resizable=0;points=[];" vertex="1" connectable="0" parent="xvJcPgrTXBg1_X-vIGtB-88">
          <mxGeometry x="0.414" y="1" relative="1" as="geometry">
            <mxPoint x="22" y="4" as="offset" />
          </mxGeometry>
        </mxCell>
        <mxCell id="xvJcPgrTXBg1_X-vIGtB-91" value="breakDurations" style="edgeLabel;html=1;align=center;verticalAlign=middle;resizable=0;points=[];" vertex="1" connectable="0" parent="xvJcPgrTXBg1_X-vIGtB-88">
          <mxGeometry x="-0.0265" relative="1" as="geometry">
            <mxPoint as="offset" />
          </mxGeometry>
        </mxCell>
        <mxCell id="xvJcPgrTXBg1_X-vIGtB-96" value="currentBreakSession" style="endArrow=block;endFill=1;html=1;edgeStyle=orthogonalEdgeStyle;align=left;verticalAlign=top;rounded=0;exitX=1.02;exitY=0.483;exitDx=0;exitDy=0;exitPerimeter=0;entryX=1.019;entryY=0.363;entryDx=0;entryDy=0;entryPerimeter=0;" edge="1" parent="1" source="xvJcPgrTXBg1_X-vIGtB-12" target="xvJcPgrTXBg1_X-vIGtB-18">
          <mxGeometry x="-0.0673" relative="1" as="geometry">
            <mxPoint x="990" y="380" as="sourcePoint" />
            <mxPoint x="1150" y="380" as="targetPoint" />
            <Array as="points">
              <mxPoint x="1000" y="352" />
              <mxPoint x="1000" y="460" />
            </Array>
            <mxPoint as="offset" />
          </mxGeometry>
        </mxCell>
        <mxCell id="xvJcPgrTXBg1_X-vIGtB-97" value="1" style="edgeLabel;resizable=0;html=1;align=left;verticalAlign=bottom;" connectable="0" vertex="1" parent="xvJcPgrTXBg1_X-vIGtB-96">
          <mxGeometry x="-1" relative="1" as="geometry" />
        </mxCell>
        <mxCell id="xvJcPgrTXBg1_X-vIGtB-98" value="0..*" style="edgeLabel;html=1;align=center;verticalAlign=middle;resizable=0;points=[];" vertex="1" connectable="0" parent="xvJcPgrTXBg1_X-vIGtB-96">
          <mxGeometry x="0.8764" y="-2" relative="1" as="geometry">
            <mxPoint y="23" as="offset" />
          </mxGeometry>
        </mxCell>
        <mxCell id="xvJcPgrTXBg1_X-vIGtB-99" value="Creates" style="endArrow=open;endSize=12;dashed=1;html=1;rounded=0;exitX=0.53;exitY=-0.03;exitDx=0;exitDy=0;exitPerimeter=0;entryX=-0.006;entryY=0.168;entryDx=0;entryDy=0;entryPerimeter=0;" edge="1" parent="1" source="xvJcPgrTXBg1_X-vIGtB-9" target="xvJcPgrTXBg1_X-vIGtB-80">
          <mxGeometry x="0.0184" width="160" relative="1" as="geometry">
            <mxPoint x="940" y="230" as="sourcePoint" />
            <mxPoint x="1100" y="230" as="targetPoint" />
            <Array as="points">
              <mxPoint x="885" y="260" />
              <mxPoint x="970" y="260" />
            </Array>
            <mxPoint as="offset" />
          </mxGeometry>
        </mxCell>
      </root>
    </mxGraphModel>
  </diagram>
  <diagram id="B-mdfJ82qW56p6tS3YEI" name="Sequence Diagram">
    <mxGraphModel dx="1320" dy="862" grid="1" gridSize="10" guides="1" tooltips="1" connect="1" arrows="1" fold="1" page="1" pageScale="1" pageWidth="827" pageHeight="1169" math="0" shadow="0">
      <root>
        <mxCell id="0" />
        <mxCell id="1" parent="0" />
      </root>
    </mxGraphModel>
  </diagram>
  <diagram id="mHQuwVLqTIgGkoSgFnhS" name="Activity Diagram">
    <mxGraphModel dx="1320" dy="862" grid="1" gridSize="10" guides="1" tooltips="1" connect="1" arrows="1" fold="1" page="1" pageScale="1" pageWidth="827" pageHeight="1169" math="0" shadow="0">
      <root>
        <mxCell id="0" />
        <mxCell id="1" parent="0" />
      </root>
    </mxGraphModel>
  </diagram>
  <diagram id="gyFRf3RobXXPkvNYIKJl" name="Session Tracking Feature">
    <mxGraphModel dx="910" dy="594" grid="1" gridSize="10" guides="1" tooltips="1" connect="1" arrows="1" fold="1" page="1" pageScale="1" pageWidth="827" pageHeight="1169" math="0" shadow="0">
      <root>
        <mxCell id="0" />
        <mxCell id="1" parent="0" />
        <mxCell id="Y42WRCBUlhfs_65VOWZh-1" value="&lt;h1 style=&quot;margin-top: 0px;&quot;&gt;Heading&lt;/h1&gt;&lt;p&gt;Lorem ipsum dolor sit amet, consectetur adipisicing elit, sed do eiusmod tempor incididunt ut labore et dolore magna aliqua.&lt;/p&gt;" style="text;html=1;whiteSpace=wrap;overflow=hidden;rounded=0;" vertex="1" parent="1">
          <mxGeometry x="50" y="30" width="180" height="120" as="geometry" />
        </mxCell>
      </root>
    </mxGraphModel>
  </diagram>
  <diagram id="vyOVgzsRmye3hn1URcMV" name="Break Feature">
    <mxGraphModel dx="1320" dy="862" grid="1" gridSize="10" guides="1" tooltips="1" connect="1" arrows="1" fold="1" page="1" pageScale="1" pageWidth="827" pageHeight="1169" math="0" shadow="0">
      <root>
        <mxCell id="0" />
        <mxCell id="1" parent="0" />
      </root>
    </mxGraphModel>
  </diagram>
  <diagram id="992ExxN93inMxoujn07g" name="Stats Feature">
    <mxGraphModel dx="1320" dy="862" grid="1" gridSize="10" guides="1" tooltips="1" connect="1" arrows="1" fold="1" page="1" pageScale="1" pageWidth="827" pageHeight="1169" math="0" shadow="0">
      <root>
        <mxCell id="0" />
        <mxCell id="1" parent="0" />
      </root>
    </mxGraphModel>
  </diagram>
</mxfile>
